<svg width="393" height="275" viewBox="0 0 393 275" fill="none" xmlns="http://www.w3.org/2000/svg">
<g clip-path="url(#clip0_6839_82180)">
<path d="M114.01 187.882L113.499 187.868L113.388 188.363C112.846 190.788 111.247 192.352 109.167 192.596L109.223 190.405C109.876 190.257 110.43 189.88 110.842 189.339C111.364 188.652 111.644 187.723 111.669 186.677C111.72 184.604 110.625 182.87 108.805 182.817L108.804 182.816C107.583 182.78 106.726 183.613 106.366 184.758C106.141 185.45 106.052 186.213 105.966 186.955C105.877 187.718 105.787 188.49 105.575 189.292L105.575 189.294C105.268 190.466 104.707 191.323 103.987 191.882C103.268 192.438 102.347 192.731 101.257 192.701C98.769 192.633 96.8413 190.937 96.3126 188.169L96.8397 187.448L96.192 187.43L96.115 186.948L95.4641 187.412L92.956 187.347L93.0045 185.319L95.712 185.389L96.2328 185.403L96.3351 184.895C96.8625 182.288 98.5849 180.569 100.85 180.355L100.795 182.524C100.049 182.657 99.4314 183.065 98.9826 183.665C98.4298 184.404 98.1496 185.406 98.1198 186.506L98.1193 186.507C98.0899 187.621 98.3508 188.61 98.8718 189.343C99.4009 190.087 100.19 190.547 101.127 190.569L101.127 190.57C101.783 190.586 102.344 190.379 102.787 189.993C103.216 189.618 103.499 189.108 103.678 188.559C103.903 187.89 103.998 187.09 104.088 186.331C104.181 185.548 104.269 184.779 104.463 184.063C104.798 182.887 105.373 182.042 106.088 181.497C106.801 180.954 107.695 180.677 108.728 180.704C111.168 180.768 113.079 182.522 113.487 185.333L113.562 185.844L114.081 185.858L117.525 185.946L117.476 187.974L114.01 187.882Z" fill="#FFC400" stroke="#FFA238" stroke-width="1.23166"/>
<path d="M90.9862 196.469C87.5323 187.586 91.8222 177.765 100.485 174.495C109.147 171.224 119.007 175.704 122.456 184.577C125.91 193.46 121.62 203.281 112.958 206.551C104.295 209.822 94.4357 205.342 90.9862 196.469Z" fill="#FFC400"/>
<path fill-rule="evenodd" clip-rule="evenodd" d="M120.768 185.216C117.661 177.223 108.816 173.256 101.12 176.163C93.4336 179.064 89.5526 187.82 92.663 195.82C95.7706 203.813 104.615 207.78 112.311 204.873C119.998 201.972 123.879 193.216 120.768 185.216ZM124.133 183.928C120.342 174.176 109.468 169.181 99.8381 172.818ZM99.8381 172.818C90.2004 176.456 85.5013 187.342 89.2985 197.108C93.09 206.861 103.963 211.855 113.593 208.218C123.231 204.58 127.93 193.694 124.133 183.928" fill="#FF7E35"/>
<g opacity="0.6">
<g opacity="0.6">
<path d="M105.508 173.07L93.1308 202.075C95.9175 207.435 106.573 210.712 111.543 208.777L120.817 180.715C117.909 175.642 109.982 171.605 105.508 173.07Z" fill="#FFEDB1"/>
</g>
</g>
<path d="M111.394 198.18L112.525 201.114L109.614 202.226L108.484 199.293C105.542 199.864 102.918 198.687 101.921 196.108L104.936 194.96C105.493 196.392 107.12 196.726 108.939 196.037C110.757 195.347 111.603 193.969 111.108 192.693C110.763 191.801 109.96 191.494 108.993 191.57C107.789 191.653 106.269 192.32 104.755 192.514C102.223 192.807 100.402 191.682 99.616 189.641C98.6716 187.187 99.6878 184.602 102.238 183.104L100.86 179.528L103.771 178.416L105.155 182.019C107.949 181.535 110.373 182.67 111.339 185.059L108.314 186.209C107.784 184.979 106.305 184.596 104.599 185.247C102.894 185.898 102.109 187.221 102.559 188.397C102.849 189.161 103.595 189.53 104.558 189.444C105.814 189.347 107.163 188.716 108.833 188.492C111.343 188.148 113.225 189.248 114.047 191.392C115.028 193.948 114.002 196.593 111.387 198.174L111.399 198.181L111.394 198.18Z" fill="#FF7E35"/>
<circle cx="105.668" cy="190.914" r="15.2941" stroke="#FF7E35" stroke-width="1.23166"/>
<path d="M46.6167 201.875L138.234 201.348L138.629 283.09L47.0109 283.618L46.6167 201.875Z" fill="#FD1D1C"/>
<g opacity="0.7" style="mix-blend-mode:multiply">
<path d="M138.343 230.102L65.2457 206.974L47.241 248.37L47.2425 243.468L47.2477 225.729L47.2542 203.642C47.2545 202.408 48.2548 201.408 49.4896 201.408L54.4045 201.406L84.7957 201.397L138.674 201.382L138.344 224.391L138.343 230.102Z" fill="#B5111A"/>
</g>
<path d="M65.139 183.865L65.9634 156.266L49.7358 157.554L55.8886 183.6L65.139 183.865Z" fill="#B5111A"/>
<path d="M26.522 179.81L60.0032 180.308L61.2256 190.365L28.2269 195.834L26.522 179.81Z" fill="#B5111A"/>
<path d="M39.9729 225.828L101.523 154.357L89.451 144.118C88.7502 143.524 87.7068 143.605 87.1081 144.3L27.7256 213.254C27.127 213.949 27.209 214.985 27.9097 215.579L39.982 225.818L39.9729 225.828Z" fill="#EA1D2C"/>
<mask id="mask0_6839_82180" style="mask-type:alpha" maskUnits="userSpaceOnUse" x="27" y="143" width="75" height="83">
<path d="M39.9807 225.832L101.531 154.361L89.4588 144.122C88.758 143.528 87.7146 143.609 87.116 144.304L27.7334 213.258C27.1348 213.953 27.2168 214.989 27.9175 215.583L39.9898 225.822L39.9807 225.832Z" fill="#FD1D1C"/>
</mask>
<g mask="url(#mask0_6839_82180)">
<g opacity="0.7" style="mix-blend-mode:multiply">
<path d="M41.9526 204.115L38.4337 228.184L28.166 215.919L15.1352 197.933C14.4168 196.942 14.6355 195.561 15.6257 194.837L19.9324 191.687L45.8341 172.743L88.2494 140.176C90.0964 138.757 92.7308 138.981 94.3101 140.689L103.51 150.64L41.9526 204.115Z" fill="#CA0A0A"/>
</g>
</g>
<path d="M137.135 146.795C133.846 150.579 134.358 151.149 132.893 152.861C128.64 157.741 118.23 158.377 109.459 150.858C100.665 143.319 98.6302 132.568 104.193 127.353C108.929 122.934 104.634 126.853 107.755 123.259" fill="#FFC400"/>
<path d="M127.648 156.263C122.438 157.668 115.392 156.306 109.257 151.03C104.08 146.585 100.908 140.727 100.792 135.336C100.725 132.002 101.818 129.128 103.963 127.123C105.194 125.965 105.916 125.289 106.192 125.024C106.135 124.848 106.144 124.646 107.507 123.098L107.939 123.472C107.205 124.306 106.914 124.684 106.791 124.871C106.815 124.892 106.794 124.916 106.818 124.937C106.902 125.177 106.902 125.177 104.332 127.569C102.292 129.454 101.256 132.168 101.335 135.344C101.462 140.578 104.535 146.307 109.592 150.649C118.099 157.938 128.371 157.604 132.645 152.7C133.212 152.057 133.472 151.569 133.793 150.965C134.296 150.057 134.898 148.941 136.887 146.633L137.318 147.008C135.347 149.247 134.766 150.339 134.284 151.223C133.964 151.827 133.682 152.339 133.074 153.029C131.732 154.554 129.866 155.666 127.648 156.263Z" fill="#FFC400"/>
<path d="M131.741 149.404C126.686 150.776 119.947 148.587 114.614 143.839C110.988 140.611 108.437 136.594 107.467 132.604C106.531 128.769 107.163 125.411 109.199 123.145C110.293 121.951 111.683 121.141 113.367 120.669C118.421 119.297 125.161 121.486 130.493 126.234C134.12 129.461 136.671 133.479 137.64 137.468C138.576 141.303 137.945 144.661 135.908 146.927C134.86 148.118 133.449 148.953 131.741 149.404Z" fill="#FFC400"/>
<path d="M113.778 121.983C118.389 120.731 124.625 122.819 129.619 127.232C136.297 133.188 138.726 141.761 134.925 145.983C134.021 146.963 132.849 147.669 131.408 148.057C126.797 149.31 120.561 147.221 115.567 142.809C112.132 139.748 109.758 136.01 108.828 132.264C107.991 128.893 108.518 125.99 110.261 124.057C111.142 123.057 112.337 122.371 113.778 121.983ZM113.034 119.322C111.15 119.83 109.454 120.796 108.196 122.225C103.301 127.641 105.746 137.781 113.719 144.86C119.579 150.066 126.786 152.156 132.131 150.742C134.016 150.234 135.711 149.268 136.969 147.839C141.864 142.423 139.419 132.283 131.446 125.204C125.607 119.975 118.4 117.885 113.034 119.322Z" fill="#FF7E35"/>
<path fill-rule="evenodd" clip-rule="evenodd" d="M105.99 125.929C105.655 126.31 105.026 127.024 103.83 128.382C101.545 130.978 100.982 134.691 102.038 138.63C103.071 142.548 105.697 146.672 109.671 150.034C113.646 153.395 118.201 155.328 122.337 155.721C126.451 156.138 130.125 155.039 132.411 152.442C133.019 151.751 133.27 151.466 133.522 151.18C133.962 150.68 134.403 150.179 136.793 147.464L137.44 148.025C135.05 150.741 134.61 151.241 134.169 151.741C133.918 152.027 133.666 152.313 133.058 153.003C130.521 155.886 126.577 157.003 122.259 156.578C117.941 156.152 113.245 154.139 109.15 150.674C105.056 147.209 102.33 142.956 101.238 138.818C100.146 134.68 100.712 130.676 103.225 127.773C104.441 126.392 105.07 125.677 105.385 125.32C105.552 125.129 105.636 125.034 105.678 124.986C105.699 124.962 105.72 124.939 105.72 124.939C105.72 124.939 105.72 124.939 105.741 124.915C105.762 124.891 105.783 124.867 105.804 124.843C105.972 124.653 106.37 124.2 107.251 123.2L107.898 123.761C107.018 124.761 106.619 125.214 106.451 125.404C106.368 125.5 106.326 125.547 106.326 125.547C106.221 125.667 106.137 125.762 105.99 125.929ZM105.81 125.605C105.786 125.584 105.786 125.584 105.741 125.587C105.717 125.566 105.69 125.501 105.666 125.48C105.738 125.542 105.786 125.584 105.81 125.605Z" fill="#FF7E35"/>
<path fill-rule="evenodd" clip-rule="evenodd" d="M106.931 133.64C108.028 137.532 110.717 141.584 114.71 144.877C118.699 148.125 123.224 149.948 127.311 150.299C131.375 150.63 134.931 149.471 137.124 146.837C139.316 144.202 139.767 140.52 138.667 136.584C137.569 132.693 134.88 128.64 130.887 125.348C126.898 122.1 122.373 120.277 118.286 119.925C114.223 119.595 110.666 120.753 108.474 123.388C106.305 126.043 105.833 129.749 106.931 133.64ZM105.933 133.909C104.751 129.777 105.199 125.715 107.685 122.746C110.147 119.758 114.084 118.551 118.396 118.887C122.708 119.223 127.422 121.168 131.555 124.541C135.688 127.913 138.503 132.159 139.661 136.27C140.843 140.402 140.395 144.465 137.909 147.433C135.447 150.422 131.51 151.629 127.198 151.292C122.886 150.956 118.172 149.012 114.039 145.639C109.906 142.266 107.115 138.041 105.933 133.909Z" fill="#FFC400"/>
<path d="M113.172 119.351C111 119.946 109.088 121.06 107.669 122.769C105.207 125.758 104.758 129.821 105.916 133.932C107.098 138.064 109.889 142.289 114.022 145.662C118.155 149.034 122.89 150.955 127.181 151.315C129.021 151.482 130.795 151.34 132.413 150.895C134.585 150.3 136.496 149.185 137.916 147.477C140.378 144.488 140.826 140.425 139.669 136.314C138.487 132.182 135.696 127.957 131.563 124.584C127.43 121.211 122.695 119.291 118.404 118.931C116.564 118.764 114.79 118.906 113.172 119.351ZM132.164 149.881C130.678 150.273 129.039 150.406 127.292 150.277C123.228 149.946 118.703 148.124 114.69 144.855C110.701 141.607 108.033 137.53 106.911 133.618C105.789 129.706 106.285 126.021 108.454 123.366C109.706 121.847 111.42 120.813 113.415 120.275C114.901 119.884 116.54 119.751 118.287 119.879C122.35 120.21 126.876 122.033 130.889 125.302C134.878 128.55 137.546 132.626 138.668 136.538C139.79 140.45 139.293 144.135 137.125 146.791C135.873 148.309 134.159 149.343 132.164 149.881Z" fill="#FF7E35"/>
<g opacity="0.6">
<g opacity="0.6">
<path d="M108.663 123.087C119.036 147.994 108.663 123.087 119.036 147.994C125.201 151.364 133.893 151.382 137.434 146.304C133.571 136.909 133.038 136.698 125.977 122.053C119.881 119.037 112.03 118.782 108.663 123.087Z" fill="#FFEDB1"/>
</g>
</g>
<path fill-rule="evenodd" clip-rule="evenodd" d="M115.671 128.864C115.692 128.841 115.692 128.841 115.713 128.817L116.046 129.063L115.671 128.864Z" fill="#FFC400"/>
<path d="M128.859 138.132L130.665 139.693L129.116 141.465L127.31 139.904C125.546 141.326 123.37 141.467 121.778 140.095L123.384 138.262C124.268 139.022 125.477 138.67 126.446 137.566C127.416 136.462 127.488 135.243 126.7 134.565C126.15 134.09 125.502 134.169 124.883 134.562C124.108 135.043 123.33 136.026 122.386 136.691C120.796 137.782 119.175 137.675 117.918 136.588C116.408 135.282 116.162 133.196 117.331 131.294L115.128 129.391L116.678 127.619L118.895 129.537C120.591 128.225 122.618 128.127 124.119 129.384L122.509 131.222C121.714 130.587 120.587 130.854 119.679 131.892C118.771 132.929 118.72 134.09 119.442 134.718C119.91 135.126 120.541 135.109 121.155 134.711C121.961 134.203 122.638 133.303 123.673 132.564C125.229 131.447 126.881 131.517 128.199 132.659C129.771 134.021 130.031 136.151 128.849 138.132L128.859 138.132Z" fill="#FF7E35"/>
<path fill-rule="evenodd" clip-rule="evenodd" d="M109.438 133.678C110.363 136.914 112.581 140.288 115.901 142.995C119.221 145.702 122.989 147.218 126.378 147.508C129.767 147.798 132.75 146.797 134.553 144.602C136.356 142.408 136.748 139.332 135.845 136.072C134.92 132.837 132.702 129.463 129.382 126.756C126.062 124.049 122.294 122.533 118.905 122.243C115.516 121.952 112.534 122.954 110.73 125.148C108.882 127.346 108.489 130.422 109.438 133.678ZM108.236 133.875C107.224 130.349 107.635 126.863 109.736 124.329C111.838 121.796 115.207 120.745 118.894 121.037C122.581 121.33 126.587 122.966 130.147 125.838C133.686 128.735 136.055 132.326 137.068 135.852C138.081 139.377 137.67 142.864 135.568 145.397C133.467 147.931 130.098 148.981 126.41 148.689C122.723 148.396 118.718 146.76 115.158 143.888C111.598 141.015 109.228 137.424 108.236 133.875Z" fill="#FF7E35"/>
<path d="M106.842 251.481L104.442 263.482L102.775 258.795C98.7093 262.311 93.261 264.089 87.3652 263.726C79.9244 263.281 74.7604 257.422 73.7031 251.481H74.0693C75.7365 255.28 79.8429 258.754 84.9658 259.32C89.9671 259.886 96.1072 257.583 99.4414 254.31L95.6602 251.44L106.842 251.481ZM86.7578 231.273C89.97 231.273 93.3447 232.85 93.3447 236.446C93.3445 241.417 88.7908 247.477 82.2041 247.478C79.0327 247.478 75.6174 245.861 75.6172 242.306C75.6172 237.82 79.5609 231.273 86.7578 231.273ZM104.325 231.273C107.537 231.273 110.912 232.85 110.912 236.446C110.912 241.417 106.358 247.477 99.7715 247.478C96.6001 247.478 93.1848 245.861 93.1846 242.306C93.1846 237.82 97.1284 231.274 104.325 231.273Z" fill="white"/>
<path d="M187.676 133.399V134.212C187.676 134.326 187.632 134.42 187.544 134.496C187.468 134.572 187.38 134.609 187.279 134.609H181.017V140.702C181.017 140.815 180.972 140.916 180.884 141.004C180.809 141.08 180.72 141.118 180.619 141.118H179.806C179.692 141.118 179.598 141.08 179.522 141.004C179.446 140.916 179.408 140.815 179.408 140.702V134.609H173.468C173.367 134.609 173.272 134.572 173.184 134.496C173.108 134.42 173.07 134.326 173.07 134.212V133.399C173.07 133.285 173.108 133.19 173.184 133.115C173.272 133.039 173.367 133.001 173.468 133.001H179.408V126.909C179.408 126.796 179.446 126.701 179.522 126.625C179.598 126.55 179.692 126.512 179.806 126.512H180.619C180.72 126.512 180.809 126.55 180.884 126.625C180.972 126.701 181.017 126.796 181.017 126.909V133.001H187.279C187.38 133.001 187.468 133.039 187.544 133.115C187.632 133.19 187.676 133.285 187.676 133.399Z" fill="white"/>
<path d="M234.676 191.399V192.212C234.676 192.326 234.632 192.42 234.544 192.496C234.468 192.572 234.38 192.609 234.279 192.609H228.017V198.702C228.017 198.815 227.972 198.916 227.884 199.004C227.809 199.08 227.72 199.118 227.619 199.118H226.806C226.692 199.118 226.598 199.08 226.522 199.004C226.446 198.916 226.408 198.815 226.408 198.702V192.609H220.468C220.367 192.609 220.272 192.572 220.184 192.496C220.108 192.42 220.07 192.326 220.07 192.212V191.399C220.07 191.285 220.108 191.19 220.184 191.115C220.272 191.039 220.367 191.001 220.468 191.001H226.408V184.909C226.408 184.796 226.446 184.701 226.522 184.625C226.598 184.55 226.692 184.512 226.806 184.512H227.619C227.72 184.512 227.809 184.55 227.884 184.625C227.972 184.701 228.017 184.796 228.017 184.909V191.001H234.279C234.38 191.001 234.468 191.039 234.544 191.115C234.632 191.19 234.676 191.285 234.676 191.399Z" fill="white"/>
<g filter="url(#filter0_d_6839_82180)">
<rect x="157.5" y="45" width="299.117" height="64.5869" rx="12.9159" fill="#F5F5F5"/>
<path d="M176.381 79.8904C174.639 75.3749 176.803 70.3825 181.173 68.7203C185.543 67.0572 190.516 69.3347 192.257 73.8453C193.999 78.3608 191.835 83.3532 187.465 85.0153C183.095 86.6785 178.121 84.401 176.381 79.8904Z" fill="#FFC400"/>
<path fill-rule="evenodd" clip-rule="evenodd" d="M191.407 74.1725C189.84 70.1091 185.378 68.0928 181.496 69.5703C177.618 71.0453 175.66 75.4963 177.229 79.5629C178.797 83.6263 183.259 85.6426 187.141 84.1651C191.019 82.6902 192.976 78.2391 191.407 74.1725ZM193.105 73.5177C191.192 68.5601 185.707 66.0213 180.849 67.8701ZM180.849 67.8701C175.987 69.7194 173.616 75.2532 175.532 80.2177C177.445 85.1753 182.93 87.7141 187.788 85.8654C192.65 84.0161 195.02 78.4824 193.105 73.5177" fill="#FF7E35"/>
<g opacity="0.6">
<g opacity="0.6">
<path d="M183.727 68.013L177.437 82.7546C178.838 85.4724 184.218 87.1231 186.731 86.1346L191.453 71.8757C189.991 69.3033 185.99 67.2636 183.727 68.013Z" fill="#FFEDB1"/>
</g>
</g>
<path d="M186.676 80.764L187.246 82.2552L185.778 82.8205L185.208 81.3293C183.724 81.6198 182.4 81.0217 181.897 79.7104L183.418 79.1269C183.699 79.8548 184.519 80.0244 185.437 79.6741C186.354 79.3237 186.781 78.6232 186.531 77.9745C186.357 77.5211 185.953 77.3652 185.464 77.4039C184.857 77.446 184.09 77.7849 183.327 77.8835C182.049 78.0322 181.131 77.4607 180.734 76.4229C180.258 75.1755 180.77 73.8616 182.057 73.0999L181.362 71.2822L182.83 70.7168L183.529 72.5487C184.938 72.3022 186.161 72.8793 186.648 74.0939L185.122 74.6786C184.854 74.0533 184.108 73.8585 183.248 74.1894C182.388 74.5203 181.992 75.1929 182.219 75.7906C182.365 76.1788 182.741 76.3666 183.227 76.3229C183.861 76.2738 184.542 75.9529 185.384 75.839C186.65 75.6643 187.599 76.2232 188.014 77.3131C188.509 78.6125 187.991 79.9572 186.672 80.7609L186.678 80.7645L186.676 80.764Z" fill="#FF7E35"/>
<path d="M210.639 80.6385C210.639 80.7415 210.588 80.793 210.485 80.793H209.194C209.091 80.793 209.039 80.7415 209.039 80.6385V72.9791C209.039 72.8761 209.091 72.8246 209.194 72.8246H211.92C212.545 72.8246 213.09 72.9423 213.553 73.1777C214.017 73.4132 214.374 73.7406 214.624 74.16C214.874 74.5794 214.999 75.0576 214.999 75.5947C214.999 76.1319 214.874 76.6101 214.624 77.0295C214.374 77.4489 214.013 77.7763 213.542 78.0118C213.079 78.2472 212.538 78.3649 211.92 78.3649H210.639V80.6385ZM211.92 76.864C212.383 76.864 212.736 76.7499 212.979 76.5218C213.229 76.2937 213.354 75.9847 213.354 75.5947C213.354 75.2121 213.229 74.9068 212.979 74.6787C212.729 74.4433 212.376 74.3255 211.92 74.3255H210.639V76.864H211.92ZM217.604 80.6385C217.604 80.7415 217.552 80.793 217.449 80.793H216.257C216.154 80.793 216.103 80.7415 216.103 80.6385V75.2857C216.103 75.1827 216.154 75.1312 216.257 75.1312H217.394C217.497 75.1312 217.548 75.1827 217.548 75.2857V76.0362C217.806 75.7713 218.067 75.5543 218.332 75.3851C218.604 75.2085 218.898 75.076 219.215 74.9877L219.259 74.9767C219.333 74.9767 219.38 75.0208 219.403 75.1091L219.634 76.3452L219.645 76.4004C219.645 76.4666 219.601 76.5071 219.513 76.5218C219.123 76.5733 218.773 76.6579 218.464 76.7757C218.155 76.8934 217.868 77.0553 217.604 77.2613V80.6385ZM223.067 80.9364C222.507 80.9364 222.011 80.8114 221.577 80.5612C221.143 80.311 220.8 79.9615 220.55 79.5127C220.308 79.0566 220.186 78.5342 220.186 77.9455C220.186 77.3864 220.3 76.8823 220.528 76.4335C220.764 75.9847 221.091 75.6315 221.51 75.374C221.937 75.1165 222.423 74.9877 222.967 74.9877C223.482 74.9877 223.931 75.1055 224.314 75.3409C224.704 75.5764 225.005 75.9001 225.219 76.3121C225.432 76.7242 225.539 77.1951 225.539 77.7248C225.539 77.8205 225.531 77.9713 225.517 78.1773C225.509 78.273 225.454 78.3208 225.351 78.3208H221.698C221.75 78.7402 221.904 79.0676 222.162 79.303C222.419 79.5385 222.739 79.6562 223.122 79.6562C223.607 79.6562 223.983 79.4612 224.248 79.0713C224.306 78.9903 224.376 78.9719 224.457 79.0161L225.362 79.4465C225.458 79.498 225.491 79.5532 225.462 79.6121C225.256 80.0167 224.95 80.3405 224.546 80.5833C224.141 80.8187 223.648 80.9364 223.067 80.9364ZM224.093 77.2723C224.056 76.9265 223.935 76.6616 223.729 76.4777C223.523 76.2864 223.265 76.1907 222.956 76.1907C222.647 76.1907 222.382 76.2901 222.162 76.4887C221.948 76.68 221.801 76.9412 221.72 77.2723H224.093ZM228.673 80.9364C227.606 80.9364 226.852 80.5391 226.411 79.7445C226.396 79.7003 226.389 79.6746 226.389 79.6672C226.389 79.6157 226.418 79.5716 226.477 79.5348L227.272 79.0823C227.301 79.0602 227.33 79.0492 227.36 79.0492C227.404 79.0492 227.444 79.0786 227.481 79.1375C227.776 79.5348 228.177 79.7335 228.684 79.7335C228.956 79.7335 229.162 79.6856 229.302 79.59C229.449 79.4943 229.523 79.3656 229.523 79.2037C229.523 79.0418 229.446 78.9168 229.291 78.8285C229.144 78.7328 228.887 78.6408 228.519 78.5525C227.923 78.4054 227.437 78.1994 227.062 77.9345C226.687 77.6623 226.499 77.2649 226.499 76.7426C226.499 76.4115 226.591 76.1135 226.775 75.8486C226.959 75.5764 227.22 75.3667 227.559 75.2195C227.897 75.065 228.283 74.9877 228.717 74.9877C229.733 74.9877 230.457 75.374 230.892 76.1466C230.906 76.1907 230.914 76.2165 230.914 76.2238C230.914 76.268 230.884 76.3084 230.825 76.3452L230.031 76.7536C229.987 76.7683 229.957 76.7757 229.942 76.7757C229.891 76.7757 229.85 76.7499 229.821 76.6984C229.578 76.3452 229.221 76.1687 228.75 76.1687C228.522 76.1687 228.335 76.2128 228.188 76.3011C228.048 76.3894 227.978 76.5034 227.978 76.6432C227.978 76.7904 228.048 76.9044 228.188 76.9854C228.335 77.0589 228.574 77.1362 228.905 77.2171C229.317 77.3348 229.667 77.4599 229.953 77.5924C230.24 77.7248 230.483 77.9161 230.682 78.1663C230.888 78.4091 230.991 78.7255 230.991 79.1154C230.991 79.4686 230.895 79.785 230.704 80.0646C230.52 80.3368 230.251 80.5502 229.898 80.7047C229.552 80.8592 229.144 80.9364 228.673 80.9364ZM234.787 80.9364C234.228 80.9364 233.732 80.8114 233.298 80.5612C232.863 80.311 232.521 79.9615 232.271 79.5127C232.028 79.0566 231.907 78.5342 231.907 77.9455C231.907 77.3864 232.021 76.8823 232.249 76.4335C232.485 75.9847 232.812 75.6315 233.231 75.374C233.658 75.1165 234.144 74.9877 234.688 74.9877C235.203 74.9877 235.652 75.1055 236.035 75.3409C236.425 75.5764 236.726 75.9001 236.94 76.3121C237.153 76.7242 237.26 77.1951 237.26 77.7248C237.26 77.8205 237.252 77.9713 237.238 78.1773C237.23 78.273 237.175 78.3208 237.072 78.3208H233.419C233.47 78.7402 233.625 79.0676 233.882 79.303C234.14 79.5385 234.46 79.6562 234.843 79.6562C235.328 79.6562 235.703 79.4612 235.968 79.0713C236.027 78.9903 236.097 78.9719 236.178 79.0161L237.083 79.4465C237.179 79.498 237.212 79.5532 237.182 79.6121C236.976 80.0167 236.671 80.3405 236.266 80.5833C235.862 80.8187 235.369 80.9364 234.787 80.9364ZM235.814 77.2723C235.777 76.9265 235.656 76.6616 235.45 76.4777C235.244 76.2864 234.986 76.1907 234.677 76.1907C234.368 76.1907 234.103 76.2901 233.882 76.4887C233.669 76.68 233.522 76.9412 233.441 77.2723H235.814ZM239.997 80.6385C239.997 80.7415 239.945 80.793 239.842 80.793H238.65C238.547 80.793 238.496 80.7415 238.496 80.6385V75.2857C238.496 75.1827 238.547 75.1312 238.65 75.1312H239.787C239.89 75.1312 239.942 75.1827 239.942 75.2857V75.8817C240.228 75.5727 240.523 75.3483 240.824 75.2085C241.133 75.0613 241.465 74.9877 241.818 74.9877C242.458 74.9877 242.951 75.1938 243.297 75.6058C243.65 76.0105 243.826 76.566 243.826 77.2723V80.6385C243.826 80.7415 243.775 80.793 243.672 80.793H242.48C242.377 80.793 242.325 80.7415 242.325 80.6385V77.4047C242.325 77.081 242.252 76.8272 242.105 76.6432C241.958 76.4593 241.74 76.3673 241.454 76.3673C241.211 76.3673 240.964 76.4335 240.714 76.566C240.471 76.6984 240.232 76.8971 239.997 77.1619V80.6385ZM249.014 80.6385C249.014 80.7415 248.962 80.793 248.859 80.793H248.473C247.546 80.793 246.861 80.587 246.42 80.1749C245.979 79.7629 245.758 79.1743 245.758 78.4091V76.4777H244.787C244.684 76.4777 244.632 76.4262 244.632 76.3232V75.2857C244.632 75.1827 244.684 75.1312 244.787 75.1312H245.758V73.6744C245.758 73.5714 245.809 73.5199 245.912 73.5199H247.104C247.207 73.5199 247.259 73.5714 247.259 73.6744V75.1312H248.815C248.918 75.1312 248.969 75.1827 248.969 75.2857V76.3232C248.969 76.4262 248.918 76.4777 248.815 76.4777H247.259V78.1994C247.259 78.4863 247.296 78.7144 247.369 78.8836C247.45 79.0529 247.586 79.178 247.777 79.2589C247.976 79.3398 248.252 79.3803 248.605 79.3803H248.859C248.962 79.3803 249.014 79.4318 249.014 79.5348V80.6385ZM252.645 80.9364C252.085 80.9364 251.589 80.8114 251.155 80.5612C250.721 80.311 250.378 79.9615 250.128 79.5127C249.885 79.0566 249.764 78.5342 249.764 77.9455C249.764 77.3864 249.878 76.8823 250.106 76.4335C250.342 75.9847 250.669 75.6315 251.088 75.374C251.515 75.1165 252.001 74.9877 252.545 74.9877C253.06 74.9877 253.509 75.1055 253.892 75.3409C254.282 75.5764 254.583 75.9001 254.797 76.3121C255.01 76.7242 255.117 77.1951 255.117 77.7248C255.117 77.8205 255.109 77.9713 255.095 78.1773C255.087 78.273 255.032 78.3208 254.929 78.3208H251.276C251.328 78.7402 251.482 79.0676 251.74 79.303C251.997 79.5385 252.317 79.6562 252.7 79.6562C253.185 79.6562 253.561 79.4612 253.826 79.0713C253.884 78.9903 253.954 78.9719 254.035 79.0161L254.94 79.4465C255.036 79.498 255.069 79.5532 255.04 79.6121C254.834 80.0167 254.528 80.3405 254.124 80.5833C253.719 80.8187 253.226 80.9364 252.645 80.9364ZM253.671 77.2723C253.634 76.9265 253.513 76.6616 253.307 76.4777C253.101 76.2864 252.843 76.1907 252.534 76.1907C252.225 76.1907 251.96 76.2901 251.74 76.4887C251.526 76.68 251.379 76.9412 251.298 77.2723H253.671ZM261.463 80.9364C260.999 80.9364 260.576 80.8187 260.194 80.5833C259.811 80.3405 259.506 79.9947 259.278 79.5458C259.057 79.097 258.946 78.5709 258.946 77.9676C258.946 77.4011 259.057 76.8934 259.278 76.4446C259.498 75.9884 259.804 75.6315 260.194 75.374C260.584 75.1165 261.029 74.9877 261.529 74.9877C262.177 74.9877 262.658 75.2048 262.975 75.6389V72.7694C262.975 72.6664 263.026 72.6149 263.129 72.6149H264.321C264.424 72.6149 264.476 72.6664 264.476 72.7694V80.6385C264.476 80.7415 264.424 80.793 264.321 80.793H263.207C263.104 80.793 263.052 80.7415 263.052 80.6385V80.1639C262.876 80.4067 262.647 80.598 262.368 80.7378C262.096 80.8702 261.794 80.9364 261.463 80.9364ZM261.761 79.5569C262.018 79.5569 262.25 79.4943 262.456 79.3693C262.669 79.2368 262.842 79.0566 262.975 78.8285V77.6144C262.975 77.2318 262.864 76.9302 262.644 76.7094C262.43 76.4814 262.143 76.3673 261.783 76.3673C261.393 76.3673 261.077 76.5108 260.834 76.7977C260.591 77.0773 260.47 77.4636 260.47 77.9566C260.47 78.4495 260.587 78.8395 260.823 79.1264C261.066 79.4134 261.378 79.5569 261.761 79.5569ZM268.603 80.9364C268.044 80.9364 267.548 80.8114 267.114 80.5612C266.679 80.311 266.337 79.9615 266.087 79.5127C265.844 79.0566 265.723 78.5342 265.723 77.9455C265.723 77.3864 265.837 76.8823 266.065 76.4335C266.301 75.9847 266.628 75.6315 267.047 75.374C267.474 75.1165 267.96 74.9877 268.504 74.9877C269.019 74.9877 269.468 75.1055 269.851 75.3409C270.241 75.5764 270.542 75.9001 270.756 76.3121C270.969 76.7242 271.076 77.1951 271.076 77.7248C271.076 77.8205 271.068 77.9713 271.054 78.1773C271.046 78.273 270.991 78.3208 270.888 78.3208H267.235C267.286 78.7402 267.441 79.0676 267.698 79.303C267.956 79.5385 268.276 79.6562 268.659 79.6562C269.144 79.6562 269.52 79.4612 269.784 79.0713C269.843 78.9903 269.913 78.9719 269.994 79.0161L270.899 79.4465C270.995 79.498 271.028 79.5532 270.998 79.6121C270.792 80.0167 270.487 80.3405 270.082 80.5833C269.678 80.8187 269.185 80.9364 268.603 80.9364ZM269.63 77.2723C269.593 76.9265 269.472 76.6616 269.266 76.4777C269.06 76.2864 268.802 76.1907 268.493 76.1907C268.184 76.1907 267.919 76.2901 267.698 76.4887C267.485 76.68 267.338 76.9412 267.257 77.2723H269.63ZM276.892 80.6385C276.892 80.7415 276.84 80.793 276.737 80.793H275.468C275.365 80.793 275.314 80.7415 275.314 80.6385V72.9791C275.314 72.8761 275.365 72.8246 275.468 72.8246H278.349C278.93 72.8246 279.434 72.9386 279.861 73.1667C280.288 73.3874 280.615 73.6928 280.843 74.0827C281.071 74.4653 281.185 74.8958 281.185 75.374C281.185 75.8964 281.038 76.3452 280.744 76.7205C280.449 77.0884 280.059 77.3569 279.574 77.5261L281.494 80.6053C281.516 80.6348 281.527 80.6605 281.527 80.6826C281.527 80.7194 281.513 80.7488 281.483 80.7709C281.461 80.7856 281.428 80.793 281.384 80.793H279.839C279.758 80.793 279.695 80.7599 279.651 80.6936L278.007 77.9676H276.892V80.6385ZM278.327 76.566C278.724 76.566 279.04 76.463 279.276 76.2569C279.511 76.0436 279.629 75.7677 279.629 75.4292C279.629 75.0834 279.511 74.8075 279.276 74.6015C279.048 74.3954 278.731 74.2924 278.327 74.2924H276.892V76.566H278.327ZM284.618 82.3381C284.522 82.3381 284.474 82.2866 284.474 82.1836L284.529 80.6495C284.036 80.5833 283.598 80.4324 283.216 80.197C282.841 79.9542 282.535 79.6341 282.3 79.2368C282.285 79.2147 282.278 79.1853 282.278 79.1485C282.278 79.097 282.304 79.0566 282.355 79.0271L283.26 78.4643C283.282 78.4495 283.312 78.4422 283.348 78.4422C283.392 78.4422 283.437 78.4643 283.481 78.5084C283.679 78.788 283.915 78.9977 284.187 79.1375C284.467 79.2773 284.772 79.3472 285.103 79.3472C285.486 79.3472 285.776 79.2662 285.975 79.1044C286.181 78.9351 286.284 78.7328 286.284 78.4974C286.284 78.3208 286.233 78.1773 286.13 78.0669C286.034 77.9492 285.883 77.8462 285.677 77.7579C285.471 77.6696 285.147 77.5519 284.706 77.4047C283.249 76.9265 282.521 76.1613 282.521 75.1091C282.521 74.5794 282.701 74.1195 283.061 73.7296C283.422 73.3396 283.919 73.0931 284.551 72.9901L284.496 71.434C284.496 71.331 284.544 71.2795 284.64 71.2795H285.776C285.872 71.2795 285.92 71.331 285.92 71.434L285.843 72.9791C286.623 73.1042 287.23 73.4978 287.664 74.16C287.678 74.1821 287.686 74.2115 287.686 74.2483C287.686 74.2998 287.66 74.3403 287.608 74.3697L286.714 74.9546C286.685 74.9767 286.656 74.9877 286.626 74.9877C286.589 74.9877 286.545 74.962 286.494 74.9105C286.17 74.469 285.732 74.2483 285.18 74.2483C284.827 74.2483 284.548 74.3219 284.342 74.469C284.136 74.6162 284.033 74.8038 284.033 75.0319C284.033 75.2011 284.077 75.3409 284.165 75.4513C284.253 75.5543 284.378 75.6426 284.54 75.7162C284.709 75.7897 284.956 75.8817 285.28 75.9921C285.817 76.1687 286.262 76.3526 286.615 76.5439C286.968 76.7278 287.255 76.9743 287.476 77.2833C287.704 77.585 287.818 77.9639 287.818 78.4201C287.818 78.9793 287.642 79.4539 287.288 79.8438C286.935 80.2338 286.45 80.4876 285.832 80.6053L285.898 82.1836C285.898 82.2866 285.85 82.3381 285.754 82.3381H284.618ZM294.429 80.9364C293.73 80.9364 293.152 80.7819 292.696 80.4729C292.24 80.1639 291.898 79.7224 291.67 79.1485C291.663 79.1338 291.659 79.1117 291.659 79.0823C291.659 79.0161 291.692 78.9719 291.758 78.9499L292.763 78.5967C292.777 78.5893 292.803 78.5857 292.84 78.5857C292.899 78.5857 292.943 78.6151 292.972 78.6739C293.252 79.2699 293.734 79.5679 294.418 79.5679C294.837 79.5679 295.165 79.4686 295.4 79.2699C295.636 79.0713 295.753 78.8137 295.753 78.4974C295.753 78.1883 295.632 77.9419 295.389 77.7579C295.146 77.5666 294.804 77.471 294.363 77.471H293.579C293.476 77.471 293.425 77.4195 293.425 77.3165V76.279C293.425 76.176 293.476 76.1245 293.579 76.1245H294.363C294.797 76.1245 295.132 76.0325 295.367 75.8486C295.603 75.6573 295.72 75.4034 295.72 75.0871C295.72 74.778 295.61 74.5316 295.389 74.3476C295.168 74.1563 294.874 74.0607 294.506 74.0607C293.866 74.0607 293.403 74.355 293.116 74.9436C293.072 75.0392 293.002 75.0687 292.906 75.0319L291.902 74.6787C291.858 74.664 291.824 74.6382 291.802 74.6015C291.788 74.5647 291.791 74.5242 291.813 74.4801C292.034 73.8988 292.369 73.4537 292.818 73.1446C293.274 72.8356 293.837 72.6811 294.506 72.6811C295.051 72.6811 295.529 72.7767 295.941 72.968C296.353 73.1593 296.669 73.4242 296.89 73.7627C297.111 74.1011 297.221 74.4837 297.221 74.9105C297.221 75.3004 297.126 75.6573 296.934 75.981C296.75 76.2974 296.478 76.5402 296.118 76.7094C296.5 76.8713 296.791 77.1068 296.99 77.4158C297.196 77.7174 297.299 78.078 297.299 78.4974C297.299 78.9683 297.181 79.3876 296.945 79.7555C296.717 80.1234 296.386 80.414 295.952 80.6274C295.518 80.8334 295.01 80.9364 294.429 80.9364ZM301.029 80.9364C300.381 80.9364 299.833 80.7893 299.384 80.495C298.936 80.1933 298.593 79.7592 298.358 79.1927C298.351 79.178 298.347 79.1559 298.347 79.1264C298.347 79.0602 298.38 79.0161 298.446 78.994L299.451 78.6298C299.465 78.6224 299.491 78.6188 299.528 78.6188C299.587 78.6188 299.631 78.6482 299.66 78.7071C299.808 78.9793 299.995 79.1927 300.223 79.3472C300.451 79.4943 300.72 79.5679 301.029 79.5679C301.441 79.5679 301.768 79.4539 302.011 79.2258C302.254 78.9977 302.375 78.7034 302.375 78.3429C302.375 77.975 302.25 77.6807 302 77.4599C301.75 77.2318 301.408 77.1178 300.974 77.1178C300.495 77.1178 300.069 77.2723 299.693 77.5813C299.635 77.6328 299.568 77.6475 299.495 77.6255L298.645 77.4047C298.549 77.3827 298.509 77.3238 298.524 77.2282L299.031 72.968C299.039 72.9239 299.057 72.8908 299.086 72.8687C299.116 72.8393 299.153 72.8246 299.197 72.8246H303.369C303.472 72.8246 303.523 72.8761 303.523 72.9791V74.0607C303.523 74.1637 303.472 74.2152 303.369 74.2152H300.334L300.113 76.0583C300.437 75.8964 300.819 75.8155 301.261 75.8155C301.783 75.8155 302.243 75.9222 302.64 76.1355C303.045 76.3489 303.354 76.6432 303.567 77.0185C303.788 77.3937 303.898 77.8241 303.898 78.3097C303.898 78.8174 303.781 79.2699 303.545 79.6672C303.31 80.0646 302.975 80.3773 302.541 80.6053C302.107 80.8261 301.603 80.9364 301.029 80.9364Z" fill="#B5004C"/>
</g>
<g filter="url(#filter1_d_6839_82180)">
<rect x="203.25" y="100" width="299.117" height="64.5869" rx="12.9159" fill="#F5F5F5"/>
<path d="M225.292 135.683C225.292 135.712 225.281 135.738 225.259 135.76C225.244 135.782 225.218 135.793 225.181 135.793H224.354C224.324 135.793 224.298 135.782 224.276 135.76C224.254 135.738 224.243 135.712 224.243 135.683V127.935C224.243 127.898 224.254 127.872 224.276 127.858C224.298 127.836 224.324 127.825 224.354 127.825H226.804C227.392 127.825 227.9 127.935 228.327 128.156C228.761 128.376 229.092 128.685 229.32 129.083C229.556 129.473 229.673 129.918 229.673 130.418C229.673 130.918 229.556 131.364 229.32 131.754C229.092 132.144 228.761 132.453 228.327 132.681C227.893 132.901 227.385 133.012 226.804 133.012H225.292V135.683ZM226.804 132.041C227.37 132.041 227.812 131.893 228.128 131.599C228.452 131.305 228.614 130.911 228.614 130.418C228.614 129.933 228.452 129.543 228.128 129.248C227.812 128.947 227.37 128.796 226.804 128.796H225.292V132.041H226.804ZM231.903 135.683C231.903 135.712 231.892 135.738 231.87 135.76C231.855 135.782 231.829 135.793 231.792 135.793H231.02C230.99 135.793 230.965 135.782 230.942 135.76C230.92 135.738 230.909 135.712 230.909 135.683V130.297C230.909 130.26 230.92 130.234 230.942 130.22C230.965 130.197 230.99 130.186 231.02 130.186H231.792C231.829 130.186 231.855 130.197 231.87 130.22C231.892 130.234 231.903 130.26 231.903 130.297V135.683ZM231.406 128.95C231.2 128.95 231.031 128.888 230.898 128.763C230.773 128.638 230.711 128.472 230.711 128.266C230.711 128.075 230.773 127.92 230.898 127.803C231.031 127.677 231.2 127.615 231.406 127.615C231.612 127.615 231.778 127.677 231.903 127.803C232.028 127.92 232.09 128.078 232.09 128.277C232.09 128.476 232.028 128.638 231.903 128.763C231.778 128.888 231.612 128.95 231.406 128.95ZM234.176 135.727C234.147 135.771 234.099 135.793 234.033 135.793H233.172C233.128 135.793 233.098 135.778 233.084 135.749C233.069 135.719 233.076 135.69 233.106 135.661L235.103 132.946L233.194 130.319C233.179 130.304 233.172 130.282 233.172 130.253C233.172 130.238 233.179 130.223 233.194 130.208C233.209 130.194 233.231 130.186 233.26 130.186H234.22C234.279 130.186 234.323 130.208 234.353 130.253L235.776 132.261L237.244 130.253C237.274 130.208 237.318 130.186 237.377 130.186H238.238C238.282 130.186 238.311 130.201 238.326 130.231C238.341 130.253 238.333 130.282 238.304 130.319L236.406 132.901L238.414 135.661C238.429 135.675 238.436 135.697 238.436 135.727C238.436 135.741 238.429 135.756 238.414 135.771C238.4 135.786 238.377 135.793 238.348 135.793H237.41C237.351 135.793 237.307 135.771 237.277 135.727L235.732 133.586L234.176 135.727ZM261.624 135.914C260.955 135.914 260.348 135.741 259.803 135.396C259.259 135.05 258.832 134.568 258.523 133.95C258.214 133.324 258.059 132.611 258.059 131.809C258.059 131.029 258.21 130.326 258.512 129.701C258.813 129.075 259.233 128.586 259.77 128.233C260.314 127.88 260.929 127.703 261.613 127.703C262.305 127.703 262.886 127.865 263.357 128.189C263.835 128.513 264.199 128.95 264.449 129.502C264.457 129.517 264.461 129.535 264.461 129.557C264.461 129.601 264.438 129.631 264.394 129.646L263.71 129.944C263.695 129.951 263.677 129.955 263.655 129.955C263.618 129.955 263.589 129.933 263.567 129.888C263.368 129.498 263.103 129.2 262.772 128.994C262.448 128.781 262.062 128.674 261.613 128.674C261.142 128.674 260.719 128.803 260.344 129.061C259.969 129.311 259.674 129.671 259.461 130.142C259.248 130.613 259.141 131.165 259.141 131.798C259.141 132.423 259.248 132.975 259.461 133.453C259.682 133.931 259.98 134.299 260.355 134.557C260.738 134.814 261.161 134.943 261.624 134.943C262.544 134.943 263.224 134.516 263.666 133.663C263.703 133.597 263.75 133.578 263.809 133.608L264.494 133.884C264.56 133.913 264.582 133.957 264.56 134.016C264.295 134.612 263.916 135.079 263.423 135.418C262.93 135.749 262.33 135.914 261.624 135.914ZM266.745 135.683C266.745 135.712 266.734 135.738 266.712 135.76C266.697 135.782 266.671 135.793 266.635 135.793H265.862C265.833 135.793 265.807 135.782 265.785 135.76C265.763 135.738 265.752 135.712 265.752 135.683V130.297C265.752 130.26 265.763 130.234 265.785 130.22C265.807 130.197 265.833 130.186 265.862 130.186H266.602C266.638 130.186 266.664 130.197 266.679 130.22C266.701 130.234 266.712 130.26 266.712 130.297V131.18C267.006 130.893 267.297 130.657 267.584 130.473C267.878 130.289 268.195 130.153 268.533 130.065H268.566C268.618 130.065 268.651 130.094 268.665 130.153L268.853 130.948V130.97C268.853 131.029 268.824 131.066 268.765 131.08C268.375 131.154 268.018 131.264 267.694 131.411C267.378 131.551 267.061 131.75 266.745 132.007V135.683ZM272.153 135.914C271.623 135.914 271.145 135.793 270.718 135.55C270.299 135.3 269.971 134.954 269.736 134.513C269.501 134.064 269.383 133.553 269.383 132.979C269.383 132.442 269.497 131.952 269.725 131.511C269.96 131.062 270.28 130.709 270.685 130.451C271.097 130.194 271.557 130.065 272.065 130.065C272.543 130.065 272.966 130.179 273.334 130.407C273.709 130.635 274 130.952 274.206 131.356C274.412 131.754 274.515 132.202 274.515 132.703C274.515 132.82 274.504 132.964 274.482 133.133C274.482 133.199 274.445 133.232 274.371 133.232H270.376C270.428 133.784 270.615 134.218 270.939 134.535C271.27 134.844 271.675 134.998 272.153 134.998C272.778 134.998 273.246 134.752 273.555 134.259C273.569 134.229 273.591 134.211 273.621 134.204C273.65 134.196 273.68 134.2 273.709 134.215L274.316 134.524C274.375 134.561 274.397 134.601 274.382 134.645C274.176 135.028 273.882 135.337 273.499 135.572C273.124 135.8 272.675 135.914 272.153 135.914ZM273.533 132.372C273.488 131.938 273.33 131.599 273.058 131.356C272.786 131.106 272.447 130.981 272.043 130.981C271.638 130.981 271.288 131.11 270.994 131.367C270.707 131.617 270.516 131.952 270.42 132.372H273.533ZM273.411 128.056C273.419 128.071 273.422 128.089 273.422 128.112C273.422 128.156 273.404 128.189 273.367 128.211L271.369 129.281C271.34 129.296 271.318 129.303 271.303 129.303C271.266 129.303 271.237 129.285 271.215 129.248L270.983 128.84C270.968 128.811 270.961 128.788 270.961 128.774C270.961 128.744 270.979 128.719 271.016 128.696L272.892 127.416C272.907 127.402 272.929 127.394 272.959 127.394C272.995 127.394 273.025 127.413 273.047 127.449L273.411 128.056ZM278.19 135.914C277.719 135.914 277.285 135.797 276.888 135.561C276.498 135.318 276.189 134.976 275.961 134.535C275.733 134.086 275.618 133.571 275.618 132.99C275.618 132.43 275.729 131.93 275.95 131.489C276.178 131.047 276.49 130.701 276.888 130.451C277.285 130.194 277.734 130.065 278.234 130.065C278.911 130.065 279.437 130.297 279.812 130.76V127.725C279.812 127.688 279.823 127.663 279.845 127.648C279.868 127.626 279.893 127.615 279.923 127.615H280.695C280.732 127.615 280.758 127.626 280.773 127.648C280.795 127.663 280.806 127.688 280.806 127.725V135.683C280.806 135.712 280.795 135.738 280.773 135.76C280.758 135.782 280.732 135.793 280.695 135.793H279.978C279.948 135.793 279.923 135.782 279.901 135.76C279.879 135.738 279.868 135.712 279.868 135.683V135.142C279.669 135.385 279.43 135.576 279.15 135.716C278.871 135.848 278.551 135.914 278.19 135.914ZM278.3 134.998C278.624 134.998 278.918 134.917 279.183 134.756C279.448 134.594 279.658 134.373 279.812 134.093V132.482C279.812 132.033 279.669 131.673 279.382 131.4C279.102 131.121 278.745 130.981 278.311 130.981C277.988 130.981 277.697 131.066 277.439 131.235C277.189 131.397 276.991 131.632 276.844 131.941C276.704 132.243 276.634 132.592 276.634 132.99C276.634 133.38 276.704 133.725 276.844 134.027C276.983 134.329 277.178 134.568 277.428 134.744C277.679 134.914 277.969 134.998 278.3 134.998ZM283.543 135.683C283.543 135.712 283.532 135.738 283.51 135.76C283.495 135.782 283.469 135.793 283.432 135.793H282.66C282.63 135.793 282.605 135.782 282.583 135.76C282.56 135.738 282.549 135.712 282.549 135.683V130.297C282.549 130.26 282.56 130.234 282.583 130.22C282.605 130.197 282.63 130.186 282.66 130.186H283.432C283.469 130.186 283.495 130.197 283.51 130.22C283.532 130.234 283.543 130.26 283.543 130.297V135.683ZM283.046 128.95C282.84 128.95 282.671 128.888 282.538 128.763C282.413 128.638 282.351 128.472 282.351 128.266C282.351 128.075 282.413 127.92 282.538 127.803C282.671 127.677 282.84 127.615 283.046 127.615C283.252 127.615 283.418 127.677 283.543 127.803C283.668 127.92 283.73 128.078 283.73 128.277C283.73 128.476 283.668 128.638 283.543 128.763C283.418 128.888 283.252 128.95 283.046 128.95ZM288.741 135.694C288.741 135.723 288.73 135.749 288.708 135.771C288.693 135.793 288.667 135.804 288.631 135.804H288.134C287.339 135.804 286.754 135.624 286.379 135.263C286.004 134.895 285.816 134.38 285.816 133.718V131.113H284.757C284.727 131.113 284.702 131.102 284.679 131.08C284.657 131.058 284.646 131.033 284.646 131.003V130.297C284.646 130.26 284.657 130.234 284.679 130.22C284.702 130.197 284.727 130.186 284.757 130.186H285.816V128.674C285.816 128.638 285.827 128.612 285.849 128.597C285.871 128.575 285.897 128.564 285.927 128.564H286.699C286.736 128.564 286.762 128.575 286.776 128.597C286.799 128.612 286.81 128.638 286.81 128.674V130.186H288.586C288.623 130.186 288.649 130.197 288.664 130.22C288.686 130.234 288.697 130.26 288.697 130.297V131.003C288.697 131.033 288.686 131.058 288.664 131.08C288.649 131.102 288.623 131.113 288.586 131.113H286.81V133.597C286.81 134.046 286.913 134.373 287.119 134.579C287.332 134.785 287.711 134.888 288.255 134.888H288.631C288.667 134.888 288.693 134.899 288.708 134.921C288.73 134.936 288.741 134.962 288.741 134.998V135.694ZM292.184 135.914C291.655 135.914 291.184 135.789 290.772 135.539C290.367 135.289 290.051 134.943 289.823 134.502C289.602 134.053 289.491 133.545 289.491 132.979C289.491 132.434 289.605 131.941 289.834 131.5C290.062 131.051 290.382 130.701 290.794 130.451C291.206 130.194 291.669 130.065 292.184 130.065C292.707 130.065 293.17 130.19 293.575 130.44C293.987 130.69 294.303 131.036 294.524 131.478C294.752 131.919 294.866 132.419 294.866 132.979C294.866 133.53 294.748 134.031 294.513 134.48C294.285 134.928 293.965 135.282 293.553 135.539C293.148 135.789 292.692 135.914 292.184 135.914ZM292.184 134.998C292.508 134.998 292.795 134.917 293.045 134.756C293.303 134.586 293.501 134.351 293.641 134.049C293.781 133.74 293.851 133.383 293.851 132.979C293.851 132.581 293.781 132.232 293.641 131.93C293.501 131.629 293.303 131.397 293.045 131.235C292.795 131.066 292.508 130.981 292.184 130.981C291.861 130.981 291.57 131.066 291.312 131.235C291.062 131.397 290.864 131.629 290.716 131.93C290.577 132.232 290.507 132.581 290.507 132.979C290.507 133.383 290.577 133.74 290.716 134.049C290.864 134.351 291.062 134.586 291.312 134.756C291.57 134.917 291.861 134.998 292.184 134.998ZM315.24 135.793C315.21 135.793 315.185 135.782 315.162 135.76C315.14 135.738 315.129 135.712 315.129 135.683V127.935C315.129 127.898 315.14 127.872 315.162 127.858C315.185 127.836 315.21 127.825 315.24 127.825H317.745C318.503 127.825 319.169 127.994 319.743 128.332C320.324 128.663 320.773 129.131 321.089 129.734C321.413 130.337 321.575 131.029 321.575 131.809C321.575 132.589 321.417 133.28 321.1 133.884C320.784 134.487 320.335 134.958 319.754 135.296C319.18 135.627 318.51 135.793 317.745 135.793H315.24ZM317.745 134.822C318.289 134.822 318.768 134.7 319.18 134.458C319.599 134.215 319.923 133.869 320.151 133.42C320.379 132.964 320.493 132.43 320.493 131.82C320.493 131.216 320.379 130.687 320.151 130.231C319.923 129.774 319.599 129.421 319.18 129.171C318.768 128.921 318.289 128.796 317.745 128.796H316.178V134.822H317.745ZM325.493 135.914C324.963 135.914 324.485 135.793 324.058 135.55C323.639 135.3 323.311 134.954 323.076 134.513C322.84 134.064 322.722 133.553 322.722 132.979C322.722 132.442 322.837 131.952 323.065 131.511C323.3 131.062 323.62 130.709 324.025 130.451C324.437 130.194 324.897 130.065 325.404 130.065C325.883 130.065 326.306 130.179 326.674 130.407C327.049 130.635 327.339 130.952 327.545 131.356C327.751 131.754 327.854 132.202 327.854 132.703C327.854 132.82 327.843 132.964 327.821 133.133C327.821 133.199 327.785 133.232 327.711 133.232H323.716C323.767 133.784 323.955 134.218 324.279 134.535C324.61 134.844 325.014 134.998 325.493 134.998C326.118 134.998 326.585 134.752 326.894 134.259C326.909 134.229 326.931 134.211 326.961 134.204C326.99 134.196 327.019 134.2 327.049 134.215L327.656 134.524C327.715 134.561 327.737 134.601 327.722 134.645C327.516 135.028 327.222 135.337 326.839 135.572C326.464 135.8 326.015 135.914 325.493 135.914ZM326.872 132.372C326.828 131.938 326.67 131.599 326.398 131.356C326.125 131.106 325.787 130.981 325.382 130.981C324.978 130.981 324.628 131.11 324.334 131.367C324.047 131.617 323.856 131.952 323.76 132.372H326.872ZM326.751 128.056C326.758 128.071 326.762 128.089 326.762 128.112C326.762 128.156 326.743 128.189 326.707 128.211L324.709 129.281C324.68 129.296 324.658 129.303 324.643 129.303C324.606 129.303 324.577 129.285 324.555 129.248L324.323 128.84C324.308 128.811 324.301 128.788 324.301 128.774C324.301 128.744 324.319 128.719 324.356 128.696L326.232 127.416C326.247 127.402 326.269 127.394 326.298 127.394C326.335 127.394 326.365 127.413 326.387 127.449L326.751 128.056ZM331.916 135.914C331.526 135.914 331.188 135.844 330.901 135.705C330.614 135.565 330.386 135.377 330.216 135.142V135.683C330.216 135.712 330.205 135.738 330.183 135.76C330.168 135.782 330.143 135.793 330.106 135.793H329.389C329.359 135.793 329.333 135.782 329.311 135.76C329.289 135.738 329.278 135.712 329.278 135.683V127.725C329.278 127.688 329.289 127.663 329.311 127.648C329.333 127.626 329.359 127.615 329.389 127.615H330.161C330.198 127.615 330.224 127.626 330.238 127.648C330.26 127.663 330.272 127.688 330.272 127.725V130.793C330.47 130.565 330.713 130.389 331 130.264C331.287 130.131 331.611 130.065 331.971 130.065C332.435 130.065 332.854 130.186 333.229 130.429C333.612 130.665 333.914 131.007 334.134 131.456C334.355 131.897 334.465 132.408 334.465 132.99C334.465 133.549 334.355 134.049 334.134 134.491C333.914 134.932 333.608 135.282 333.218 135.539C332.836 135.789 332.402 135.914 331.916 135.914ZM331.839 134.998C332.148 134.998 332.424 134.917 332.666 134.756C332.917 134.586 333.108 134.351 333.24 134.049C333.38 133.74 333.45 133.387 333.45 132.99C333.45 132.6 333.384 132.254 333.251 131.952C333.119 131.651 332.931 131.415 332.689 131.246C332.453 131.069 332.177 130.981 331.861 130.981C331.53 130.981 331.224 131.062 330.945 131.224C330.665 131.386 330.441 131.606 330.272 131.886V133.497C330.272 133.799 330.341 134.064 330.481 134.292C330.621 134.52 330.809 134.697 331.044 134.822C331.287 134.939 331.552 134.998 331.839 134.998ZM336.882 135.683C336.882 135.712 336.871 135.738 336.849 135.76C336.835 135.782 336.809 135.793 336.772 135.793H335.999C335.97 135.793 335.944 135.782 335.922 135.76C335.9 135.738 335.889 135.712 335.889 135.683V130.297C335.889 130.26 335.9 130.234 335.922 130.22C335.944 130.197 335.97 130.186 335.999 130.186H336.772C336.809 130.186 336.835 130.197 336.849 130.22C336.871 130.234 336.882 130.26 336.882 130.297V135.683ZM336.386 128.95C336.18 128.95 336.011 128.888 335.878 128.763C335.753 128.638 335.69 128.472 335.69 128.266C335.69 128.075 335.753 127.92 335.878 127.803C336.011 127.677 336.18 127.615 336.386 127.615C336.592 127.615 336.757 127.677 336.882 127.803C337.007 127.92 337.07 128.078 337.07 128.277C337.07 128.476 337.007 128.638 336.882 128.763C336.757 128.888 336.592 128.95 336.386 128.95ZM342.081 135.694C342.081 135.723 342.07 135.749 342.048 135.771C342.033 135.793 342.007 135.804 341.97 135.804H341.474C340.679 135.804 340.094 135.624 339.719 135.263C339.344 134.895 339.156 134.38 339.156 133.718V131.113H338.096C338.067 131.113 338.041 131.102 338.019 131.08C337.997 131.058 337.986 131.033 337.986 131.003V130.297C337.986 130.26 337.997 130.234 338.019 130.22C338.041 130.197 338.067 130.186 338.096 130.186H339.156V128.674C339.156 128.638 339.167 128.612 339.189 128.597C339.211 128.575 339.237 128.564 339.266 128.564H340.039C340.076 128.564 340.101 128.575 340.116 128.597C340.138 128.612 340.149 128.638 340.149 128.674V130.186H341.926C341.963 130.186 341.989 130.197 342.003 130.22C342.025 130.234 342.036 130.26 342.036 130.297V131.003C342.036 131.033 342.025 131.058 342.003 131.08C341.989 131.102 341.963 131.113 341.926 131.113H340.149V133.597C340.149 134.046 340.252 134.373 340.458 134.579C340.672 134.785 341.051 134.888 341.595 134.888H341.97C342.007 134.888 342.033 134.899 342.048 134.921C342.07 134.936 342.081 134.962 342.081 134.998V135.694ZM345.524 135.914C344.994 135.914 344.523 135.789 344.111 135.539C343.707 135.289 343.39 134.943 343.162 134.502C342.941 134.053 342.831 133.545 342.831 132.979C342.831 132.434 342.945 131.941 343.173 131.5C343.401 131.051 343.721 130.701 344.133 130.451C344.545 130.194 345.009 130.065 345.524 130.065C346.046 130.065 346.51 130.19 346.915 130.44C347.327 130.69 347.643 131.036 347.864 131.478C348.092 131.919 348.206 132.419 348.206 132.979C348.206 133.53 348.088 134.031 347.853 134.48C347.625 134.928 347.305 135.282 346.893 135.539C346.488 135.789 346.032 135.914 345.524 135.914ZM345.524 134.998C345.848 134.998 346.135 134.917 346.385 134.756C346.642 134.586 346.841 134.351 346.981 134.049C347.121 133.74 347.191 133.383 347.191 132.979C347.191 132.581 347.121 132.232 346.981 131.93C346.841 131.629 346.642 131.397 346.385 131.235C346.135 131.066 345.848 130.981 345.524 130.981C345.2 130.981 344.91 131.066 344.652 131.235C344.402 131.397 344.203 131.629 344.056 131.93C343.916 132.232 343.846 132.581 343.846 132.979C343.846 133.383 343.916 133.74 344.056 134.049C344.203 134.351 344.402 134.586 344.652 134.756C344.91 134.917 345.2 134.998 345.524 134.998Z" fill="#141414"/>
<path d="M244.882 135.914C244.352 135.914 243.881 135.789 243.469 135.539C243.064 135.289 242.748 134.943 242.52 134.502C242.299 134.053 242.189 133.545 242.189 132.979C242.189 132.434 242.303 131.941 242.531 131.5C242.759 131.051 243.079 130.701 243.491 130.451C243.903 130.194 244.367 130.065 244.882 130.065C245.404 130.065 245.868 130.19 246.272 130.44C246.684 130.69 247.001 131.036 247.221 131.478C247.449 131.919 247.564 132.419 247.564 132.979C247.564 133.53 247.446 134.031 247.21 134.48C246.982 134.928 246.662 135.282 246.25 135.539C245.846 135.789 245.389 135.914 244.882 135.914ZM244.882 134.998C245.205 134.998 245.492 134.917 245.743 134.756C246 134.586 246.199 134.351 246.338 134.049C246.478 133.74 246.548 133.383 246.548 132.979C246.548 132.581 246.478 132.232 246.338 131.93C246.199 131.629 246 131.397 245.743 131.235C245.492 131.066 245.205 130.981 244.882 130.981C244.558 130.981 244.267 131.066 244.01 131.235C243.76 131.397 243.561 131.629 243.414 131.93C243.274 132.232 243.204 132.581 243.204 132.979C243.204 133.383 243.274 133.74 243.414 134.049C243.561 134.351 243.76 134.586 244.01 134.756C244.267 134.917 244.558 134.998 244.882 134.998ZM251.007 135.903C250.367 135.903 249.863 135.708 249.495 135.318C249.134 134.928 248.954 134.384 248.954 133.685V130.297C248.954 130.26 248.965 130.234 248.987 130.22C249.009 130.197 249.035 130.186 249.065 130.186H249.837C249.874 130.186 249.9 130.197 249.914 130.22C249.936 130.234 249.947 130.26 249.947 130.297V133.63C249.947 134.079 250.05 134.421 250.256 134.656C250.462 134.884 250.757 134.998 251.139 134.998C251.448 134.998 251.735 134.91 252 134.733C252.265 134.557 252.501 134.325 252.707 134.038V130.297C252.707 130.26 252.718 130.234 252.74 130.22C252.762 130.197 252.788 130.186 252.817 130.186H253.589C253.626 130.186 253.652 130.197 253.667 130.22C253.689 130.234 253.7 130.26 253.7 130.297V135.683C253.7 135.712 253.689 135.738 253.667 135.76C253.652 135.782 253.626 135.793 253.589 135.793H252.872C252.843 135.793 252.817 135.782 252.795 135.76C252.773 135.738 252.762 135.712 252.762 135.683V134.965C252.548 135.245 252.295 135.473 252 135.649C251.706 135.819 251.375 135.903 251.007 135.903ZM301.554 135.914C301.025 135.914 300.554 135.789 300.142 135.539C299.737 135.289 299.421 134.943 299.193 134.502C298.972 134.053 298.861 133.545 298.861 132.979C298.861 132.434 298.976 131.941 299.204 131.5C299.432 131.051 299.752 130.701 300.164 130.451C300.576 130.194 301.039 130.065 301.554 130.065C302.077 130.065 302.54 130.19 302.945 130.44C303.357 130.69 303.673 131.036 303.894 131.478C304.122 131.919 304.236 132.419 304.236 132.979C304.236 133.53 304.119 134.031 303.883 134.48C303.655 134.928 303.335 135.282 302.923 135.539C302.518 135.789 302.062 135.914 301.554 135.914ZM301.554 134.998C301.878 134.998 302.165 134.917 302.415 134.756C302.673 134.586 302.871 134.351 303.011 134.049C303.151 133.74 303.221 133.383 303.221 132.979C303.221 132.581 303.151 132.232 303.011 131.93C302.871 131.629 302.673 131.397 302.415 131.235C302.165 131.066 301.878 130.981 301.554 130.981C301.231 130.981 300.94 131.066 300.682 131.235C300.432 131.397 300.234 131.629 300.087 131.93C299.947 132.232 299.877 132.581 299.877 132.979C299.877 133.383 299.947 133.74 300.087 134.049C300.234 134.351 300.432 134.586 300.682 134.756C300.94 134.917 301.231 134.998 301.554 134.998ZM307.68 135.903C307.04 135.903 306.536 135.708 306.168 135.318C305.807 134.928 305.627 134.384 305.627 133.685V130.297C305.627 130.26 305.638 130.234 305.66 130.22C305.682 130.197 305.708 130.186 305.737 130.186H306.51C306.547 130.186 306.572 130.197 306.587 130.22C306.609 130.234 306.62 130.26 306.62 130.297V133.63C306.62 134.079 306.723 134.421 306.929 134.656C307.135 134.884 307.43 134.998 307.812 134.998C308.121 134.998 308.408 134.91 308.673 134.733C308.938 134.557 309.173 134.325 309.379 134.038V130.297C309.379 130.26 309.39 130.234 309.412 130.22C309.434 130.197 309.46 130.186 309.49 130.186H310.262C310.299 130.186 310.325 130.197 310.339 130.22C310.362 130.234 310.373 130.26 310.373 130.297V135.683C310.373 135.712 310.362 135.738 310.339 135.76C310.325 135.782 310.299 135.793 310.262 135.793H309.545C309.515 135.793 309.49 135.782 309.468 135.76C309.446 135.738 309.434 135.712 309.434 135.683V134.965C309.221 135.245 308.967 135.473 308.673 135.649C308.379 135.819 308.048 135.903 307.68 135.903Z" fill="#666666"/>
</g>
<g filter="url(#filter2_d_6839_82180)">
<rect x="251" y="155" width="299.117" height="64.5869" rx="12.9159" fill="#F5F5F5"/>
<path d="M271.852 185.515H293.069L288.523 179.265L276.352 179.105L271.852 185.515Z" fill="#DDB6FF"/>
<path d="M286.426 184.945L282.517 195.582L278.789 184.945H286.426Z" fill="#D49CFF"/>
<path d="M293.387 183.708L290.091 179.446C289.432 178.594 288.398 178.094 287.33 178.094H277.681C276.602 178.094 275.568 178.605 274.92 179.446L271.624 183.708C270.692 184.901 270.817 186.594 271.908 187.651L280.079 195.515C280.761 196.175 281.636 196.493 282.5 196.493C283.364 196.493 284.25 196.163 284.921 195.515L293.092 187.651C294.183 186.606 294.308 184.912 293.376 183.708H293.387ZM276.261 180.492C276.261 180.492 276.329 180.423 276.363 180.378L279.102 184.946L282.443 179.798L286 184.946L288.819 180.605L292.023 184.742C292.069 184.799 292.092 184.878 292.126 184.935H286.023L282.807 194.709C282.614 194.743 282.432 194.743 282.25 194.72L279.091 184.935H272.863C272.897 184.867 272.92 184.799 272.965 184.742L276.261 180.48V180.492Z" fill="#C375FF"/>
<path d="M307.848 190.914C307.179 190.914 306.572 190.741 306.027 190.396C305.483 190.05 305.056 189.568 304.747 188.95C304.438 188.324 304.283 187.611 304.283 186.809C304.283 186.029 304.434 185.326 304.736 184.701C305.038 184.075 305.457 183.586 305.994 183.233C306.539 182.88 307.153 182.703 307.837 182.703C308.529 182.703 309.11 182.865 309.581 183.189C310.059 183.513 310.423 183.95 310.674 184.502C310.681 184.517 310.685 184.535 310.685 184.557C310.685 184.601 310.663 184.631 310.618 184.646L309.934 184.944C309.919 184.951 309.901 184.955 309.879 184.955C309.842 184.955 309.813 184.933 309.791 184.888C309.592 184.498 309.327 184.2 308.996 183.994C308.672 183.781 308.286 183.674 307.837 183.674C307.366 183.674 306.943 183.803 306.568 184.061C306.193 184.311 305.898 184.671 305.685 185.142C305.472 185.613 305.365 186.165 305.365 186.798C305.365 187.423 305.472 187.975 305.685 188.453C305.906 188.931 306.204 189.299 306.579 189.557C306.962 189.814 307.385 189.943 307.848 189.943C308.768 189.943 309.449 189.516 309.89 188.663C309.927 188.597 309.975 188.578 310.034 188.608L310.718 188.884C310.784 188.913 310.806 188.957 310.784 189.016C310.519 189.612 310.14 190.079 309.647 190.418C309.154 190.749 308.555 190.914 307.848 190.914ZM313.698 190.914C313.668 190.914 313.624 190.903 313.565 190.881C313.146 190.712 312.822 190.539 312.594 190.363C312.366 190.179 312.204 189.965 312.108 189.722C312.02 189.48 311.976 189.174 311.976 188.806V182.725C311.976 182.688 311.987 182.663 312.009 182.648C312.031 182.626 312.057 182.615 312.086 182.615H312.859C312.896 182.615 312.921 182.626 312.936 182.648C312.958 182.663 312.969 182.688 312.969 182.725V188.674C312.969 188.931 312.991 189.137 313.035 189.292C313.08 189.439 313.172 189.568 313.311 189.678C313.451 189.789 313.661 189.899 313.94 190.009C314.007 190.039 314.029 190.087 314.007 190.153L313.797 190.826C313.782 190.863 313.768 190.885 313.753 190.892C313.745 190.907 313.727 190.914 313.698 190.914ZM317.108 190.903C316.468 190.903 315.964 190.708 315.596 190.318C315.235 189.928 315.055 189.384 315.055 188.685V185.297C315.055 185.26 315.066 185.234 315.088 185.22C315.11 185.197 315.136 185.186 315.166 185.186H315.938C315.975 185.186 316.001 185.197 316.015 185.22C316.037 185.234 316.048 185.26 316.048 185.297V188.63C316.048 189.079 316.151 189.421 316.357 189.656C316.563 189.884 316.858 189.998 317.24 189.998C317.549 189.998 317.836 189.91 318.101 189.733C318.366 189.557 318.602 189.325 318.808 189.038V185.297C318.808 185.26 318.819 185.234 318.841 185.22C318.863 185.197 318.889 185.186 318.918 185.186H319.691C319.727 185.186 319.753 185.197 319.768 185.22C319.79 185.234 319.801 185.26 319.801 185.297V190.683C319.801 190.712 319.79 190.738 319.768 190.76C319.753 190.782 319.727 190.793 319.691 190.793H318.973C318.944 190.793 318.918 190.782 318.896 190.76C318.874 190.738 318.863 190.712 318.863 190.683V189.965C318.649 190.245 318.396 190.473 318.101 190.649C317.807 190.819 317.476 190.903 317.108 190.903ZM324.182 190.914C323.792 190.914 323.454 190.844 323.167 190.705C322.88 190.565 322.652 190.377 322.483 190.142V190.683C322.483 190.712 322.472 190.738 322.45 190.76C322.435 190.782 322.409 190.793 322.372 190.793H321.655C321.626 190.793 321.6 190.782 321.578 190.76C321.556 190.738 321.545 190.712 321.545 190.683V182.725C321.545 182.688 321.556 182.663 321.578 182.648C321.6 182.626 321.626 182.615 321.655 182.615H322.428C322.464 182.615 322.49 182.626 322.505 182.648C322.527 182.663 322.538 182.688 322.538 182.725V185.793C322.737 185.565 322.979 185.389 323.266 185.264C323.553 185.131 323.877 185.065 324.238 185.065C324.701 185.065 325.12 185.186 325.496 185.429C325.878 185.665 326.18 186.007 326.401 186.456C326.621 186.897 326.732 187.408 326.732 187.99C326.732 188.549 326.621 189.049 326.401 189.491C326.18 189.932 325.875 190.282 325.485 190.539C325.102 190.789 324.668 190.914 324.182 190.914ZM324.105 189.998C324.414 189.998 324.69 189.917 324.933 189.756C325.183 189.586 325.374 189.351 325.507 189.049C325.647 188.74 325.716 188.387 325.716 187.99C325.716 187.6 325.65 187.254 325.518 186.952C325.385 186.651 325.198 186.415 324.955 186.246C324.72 186.069 324.444 185.981 324.127 185.981C323.796 185.981 323.491 186.062 323.211 186.224C322.932 186.386 322.707 186.606 322.538 186.886V188.497C322.538 188.799 322.608 189.064 322.748 189.292C322.887 189.52 323.075 189.697 323.311 189.822C323.553 189.939 323.818 189.998 324.105 189.998ZM330.606 190.914C330.076 190.914 329.598 190.793 329.171 190.55C328.752 190.3 328.424 189.954 328.189 189.513C327.953 189.064 327.835 188.553 327.835 187.979C327.835 187.442 327.95 186.952 328.178 186.511C328.413 186.062 328.733 185.709 329.138 185.451C329.55 185.194 330.01 185.065 330.517 185.065C330.996 185.065 331.419 185.179 331.787 185.407C332.162 185.635 332.452 185.952 332.658 186.356C332.864 186.754 332.967 187.202 332.967 187.703C332.967 187.82 332.956 187.964 332.934 188.133C332.934 188.199 332.898 188.232 332.824 188.232H328.829C328.88 188.784 329.068 189.218 329.392 189.535C329.723 189.844 330.127 189.998 330.606 189.998C331.231 189.998 331.698 189.752 332.007 189.259C332.022 189.229 332.044 189.211 332.074 189.204C332.103 189.196 332.132 189.2 332.162 189.215L332.769 189.524C332.828 189.561 332.85 189.601 332.835 189.645C332.629 190.028 332.335 190.337 331.952 190.572C331.577 190.8 331.128 190.914 330.606 190.914ZM331.985 187.372C331.941 186.938 331.783 186.599 331.511 186.356C331.238 186.106 330.9 185.981 330.495 185.981C330.091 185.981 329.741 186.11 329.447 186.367C329.16 186.617 328.969 186.952 328.873 187.372H331.985ZM338.276 190.683C338.276 190.712 338.265 190.738 338.243 190.76C338.228 190.782 338.202 190.793 338.166 190.793H337.393C337.364 190.793 337.338 190.782 337.316 190.76C337.294 190.738 337.283 190.712 337.283 190.683V185.297C337.283 185.26 337.294 185.234 337.316 185.22C337.338 185.197 337.364 185.186 337.393 185.186H338.166C338.202 185.186 338.228 185.197 338.243 185.22C338.265 185.234 338.276 185.26 338.276 185.297V190.683ZM337.779 183.95C337.573 183.95 337.404 183.888 337.272 183.763C337.147 183.638 337.084 183.472 337.084 183.266C337.084 183.075 337.147 182.92 337.272 182.803C337.404 182.677 337.573 182.615 337.779 182.615C337.985 182.615 338.151 182.677 338.276 182.803C338.401 182.92 338.464 183.078 338.464 183.277C338.464 183.476 338.401 183.638 338.276 183.763C338.151 183.888 337.985 183.95 337.779 183.95ZM341.135 190.683C341.135 190.712 341.124 190.738 341.101 190.76C341.087 190.782 341.061 190.793 341.024 190.793H340.252C340.222 190.793 340.196 190.782 340.174 190.76C340.152 190.738 340.141 190.712 340.141 190.683V182.935C340.141 182.898 340.152 182.872 340.174 182.858C340.196 182.836 340.222 182.825 340.252 182.825H345.053C345.089 182.825 345.115 182.836 345.13 182.858C345.152 182.872 345.163 182.898 345.163 182.935V183.663C345.163 183.693 345.152 183.719 345.13 183.741C345.115 183.763 345.089 183.774 345.053 183.774H341.135V186.511H344.6C344.637 186.511 344.663 186.522 344.677 186.544C344.699 186.559 344.71 186.584 344.71 186.621V187.35C344.71 187.379 344.699 187.405 344.677 187.427C344.663 187.449 344.637 187.46 344.6 187.46H341.135V190.683ZM348.65 190.914C348.121 190.914 347.65 190.789 347.238 190.539C346.833 190.289 346.517 189.943 346.289 189.502C346.068 189.053 345.958 188.545 345.958 187.979C345.958 187.434 346.072 186.941 346.3 186.5C346.528 186.051 346.848 185.701 347.26 185.451C347.672 185.194 348.135 185.065 348.65 185.065C349.173 185.065 349.636 185.19 350.041 185.44C350.453 185.69 350.769 186.036 350.99 186.478C351.218 186.919 351.332 187.419 351.332 187.979C351.332 188.53 351.215 189.031 350.979 189.48C350.751 189.928 350.431 190.282 350.019 190.539C349.614 190.789 349.158 190.914 348.65 190.914ZM348.65 189.998C348.974 189.998 349.261 189.917 349.511 189.756C349.769 189.586 349.967 189.351 350.107 189.049C350.247 188.74 350.317 188.383 350.317 187.979C350.317 187.581 350.247 187.232 350.107 186.93C349.967 186.629 349.769 186.397 349.511 186.235C349.261 186.066 348.974 185.981 348.65 185.981C348.327 185.981 348.036 186.066 347.779 186.235C347.528 186.397 347.33 186.629 347.183 186.93C347.043 187.232 346.973 187.581 346.973 187.979C346.973 188.383 347.043 188.74 347.183 189.049C347.33 189.351 347.528 189.586 347.779 189.756C348.036 189.917 348.327 189.998 348.65 189.998ZM355.129 190.914C354.599 190.914 354.128 190.789 353.716 190.539C353.312 190.289 352.995 189.943 352.767 189.502C352.546 189.053 352.436 188.545 352.436 187.979C352.436 187.434 352.55 186.941 352.778 186.5C353.006 186.051 353.326 185.701 353.738 185.451C354.15 185.194 354.614 185.065 355.129 185.065C355.651 185.065 356.115 185.19 356.52 185.44C356.932 185.69 357.248 186.036 357.469 186.478C357.697 186.919 357.811 187.419 357.811 187.979C357.811 188.53 357.693 189.031 357.458 189.48C357.23 189.928 356.909 190.282 356.497 190.539C356.093 190.789 355.637 190.914 355.129 190.914ZM355.129 189.998C355.453 189.998 355.74 189.917 355.99 189.756C356.247 189.586 356.446 189.351 356.586 189.049C356.726 188.74 356.795 188.383 356.795 187.979C356.795 187.581 356.726 187.232 356.586 186.93C356.446 186.629 356.247 186.397 355.99 186.235C355.74 186.066 355.453 185.981 355.129 185.981C354.805 185.981 354.515 186.066 354.257 186.235C354.007 186.397 353.808 186.629 353.661 186.93C353.521 187.232 353.451 187.581 353.451 187.979C353.451 188.383 353.521 188.74 353.661 189.049C353.808 189.351 354.007 189.586 354.257 189.756C354.515 189.917 354.805 189.998 355.129 189.998ZM361.486 190.914C361.015 190.914 360.581 190.797 360.184 190.561C359.794 190.318 359.485 189.976 359.257 189.535C359.028 189.086 358.914 188.571 358.914 187.99C358.914 187.43 359.025 186.93 359.246 186.489C359.474 186.047 359.786 185.701 360.184 185.451C360.581 185.194 361.03 185.065 361.53 185.065C362.207 185.065 362.733 185.297 363.108 185.76V182.725C363.108 182.688 363.119 182.663 363.141 182.648C363.164 182.626 363.189 182.615 363.219 182.615H363.991C364.028 182.615 364.054 182.626 364.069 182.648C364.091 182.663 364.102 182.688 364.102 182.725V190.683C364.102 190.712 364.091 190.738 364.069 190.76C364.054 190.782 364.028 190.793 363.991 190.793H363.274C363.244 190.793 363.219 190.782 363.197 190.76C363.175 190.738 363.164 190.712 363.164 190.683V190.142C362.965 190.385 362.726 190.576 362.446 190.716C362.167 190.848 361.846 190.914 361.486 190.914ZM361.596 189.998C361.92 189.998 362.214 189.917 362.479 189.756C362.744 189.594 362.954 189.373 363.108 189.093V187.482C363.108 187.033 362.965 186.673 362.678 186.4C362.398 186.121 362.041 185.981 361.607 185.981C361.284 185.981 360.993 186.066 360.735 186.235C360.485 186.397 360.287 186.632 360.139 186.941C360 187.243 359.93 187.592 359.93 187.99C359.93 188.38 360 188.725 360.139 189.027C360.279 189.329 360.474 189.568 360.724 189.744C360.975 189.914 361.265 189.998 361.596 189.998Z" fill="#141414"/>
</g>
</g>
<defs>
<filter id="filter0_d_6839_82180" x="145.5" y="27" width="323.117" height="88.5859" filterUnits="userSpaceOnUse" color-interpolation-filters="sRGB">
<feFlood flood-opacity="0" result="BackgroundImageFix"/>
<feColorMatrix in="SourceAlpha" type="matrix" values="0 0 0 0 0 0 0 0 0 0 0 0 0 0 0 0 0 0 127 0" result="hardAlpha"/>
<feOffset dy="-6"/>
<feGaussianBlur stdDeviation="6"/>
<feColorMatrix type="matrix" values="0 0 0 0 0.0823529 0 0 0 0 0.0823529 0 0 0 0 0.0823529 0 0 0 0.16 0"/>
<feBlend mode="normal" in2="BackgroundImageFix" result="effect1_dropShadow_6839_82180"/>
<feBlend mode="normal" in="SourceGraphic" in2="effect1_dropShadow_6839_82180" result="shape"/>
</filter>
<filter id="filter1_d_6839_82180" x="191.25" y="82" width="323.117" height="88.5859" filterUnits="userSpaceOnUse" color-interpolation-filters="sRGB">
<feFlood flood-opacity="0" result="BackgroundImageFix"/>
<feColorMatrix in="SourceAlpha" type="matrix" values="0 0 0 0 0 0 0 0 0 0 0 0 0 0 0 0 0 0 127 0" result="hardAlpha"/>
<feOffset dy="-6"/>
<feGaussianBlur stdDeviation="6"/>
<feColorMatrix type="matrix" values="0 0 0 0 0.0823529 0 0 0 0 0.0823529 0 0 0 0 0.0823529 0 0 0 0.16 0"/>
<feBlend mode="normal" in2="BackgroundImageFix" result="effect1_dropShadow_6839_82180"/>
<feBlend mode="normal" in="SourceGraphic" in2="effect1_dropShadow_6839_82180" result="shape"/>
</filter>
<filter id="filter2_d_6839_82180" x="239" y="137" width="323.117" height="88.5859" filterUnits="userSpaceOnUse" color-interpolation-filters="sRGB">
<feFlood flood-opacity="0" result="BackgroundImageFix"/>
<feColorMatrix in="SourceAlpha" type="matrix" values="0 0 0 0 0 0 0 0 0 0 0 0 0 0 0 0 0 0 127 0" result="hardAlpha"/>
<feOffset dy="-6"/>
<feGaussianBlur stdDeviation="6"/>
<feColorMatrix type="matrix" values="0 0 0 0 0.0823529 0 0 0 0 0.0823529 0 0 0 0 0.0823529 0 0 0 0.16 0"/>
<feBlend mode="normal" in2="BackgroundImageFix" result="effect1_dropShadow_6839_82180"/>
<feBlend mode="normal" in="SourceGraphic" in2="effect1_dropShadow_6839_82180" result="shape"/>
</filter>
<clipPath id="clip0_6839_82180">
<rect width="393" height="275" fill="white"/>
</clipPath>
</defs>
</svg>
